<?xml version="1.0" encoding="UTF-8" standalone="no"?>
<svg
   width="1000"
   zoomAndPan="magnify"
   viewBox="0 0 750 749.99999"
   height="1000"
   preserveAspectRatio="xMidYMid"
   version="1.0"
   id="svg13"
   sodipodi:docname="icone_historico.svg"
   inkscape:version="1.4.2 (f4327f4, 2025-05-13)"
   xmlns:inkscape="http://www.inkscape.org/namespaces/inkscape"
   xmlns:sodipodi="http://sodipodi.sourceforge.net/DTD/sodipodi-0.dtd"
   xmlns="http://www.w3.org/2000/svg"
   xmlns:svg="http://www.w3.org/2000/svg">
  <sodipodi:namedview
     id="namedview13"
     pagecolor="#ffffff"
     bordercolor="#666666"
     borderopacity="1.0"
     inkscape:showpageshadow="2"
     inkscape:pageopacity="0.0"
     inkscape:pagecheckerboard="0"
     inkscape:deskcolor="#d1d1d1"
     inkscape:zoom="0.41051477"
     inkscape:cx="311.80364"
     inkscape:cy="510.33487"
     inkscape:window-width="1600"
     inkscape:window-height="829"
     inkscape:window-x="-8"
     inkscape:window-y="-8"
     inkscape:window-maximized="1"
     inkscape:current-layer="svg13" />
  <defs
     id="defs5">
    <clipPath
       id="73d32619cb">
      <path
         d="m 335.65625,20.65625 h 768.75005 v 768.75 H 335.65625 Z m 0,0"
         clip-rule="nonzero"
         id="path1" />
    </clipPath>
    <clipPath
       id="fe02b8fd28">
      <path
         d="M 591.28516,287.10937 H 792.79297 V 488.61719 H 591.28516 Z m 0,0"
         clip-rule="nonzero"
         id="path2" />
    </clipPath>
    <clipPath
       id="b84d69a2b4">
      <path
         d="m 692.03906,287.10937 c -55.64453,0 -100.7539,45.10938 -100.7539,100.75391 0,55.64453 45.10937,100.75391 100.7539,100.75391 55.64453,0 100.75391,-45.10938 100.75391,-100.75391 0,-55.64453 -45.10938,-100.75391 -100.75391,-100.75391 z m 0,0"
         clip-rule="nonzero"
         id="path3" />
    </clipPath>
    <clipPath
       id="309d216780">
      <path
         d="M 0.285156,0.109375 H 201.79297 V 201.61719 H 0.285156 Z m 0,0"
         clip-rule="nonzero"
         id="path4" />
    </clipPath>
    <clipPath
       id="2634171a9f">
      <path
         d="m 101.03906,0.109375 c -55.644529,0 -100.753904,45.109375 -100.753904,100.753905 0,55.64453 45.109375,100.75391 100.753904,100.75391 55.64453,0 100.75391,-45.10938 100.75391,-100.75391 0,-55.64453 -45.10938,-100.753905 -100.75391,-100.753905 z m 0,0"
         clip-rule="nonzero"
         id="path5" />
    </clipPath>
    <clipPath
       id="1e032e357e">
      <rect
         x="0"
         width="202"
         y="0"
         height="202"
         id="rect5" />
    </clipPath>
  </defs>
  <g
     id="g13"
     transform="matrix(0.96788559,0,0,0.96788559,-321.87383,-16.989887)">
    <g
       clip-path="url(#73d32619cb)"
       id="g6">
      <path
         fill="#00bf63"
         d="m 928.26562,613.26562 c -6.6289,6.62891 -15.32031,9.94532 -24.01171,9.94532 -8.6875,0 -17.37891,-3.31641 -24.01172,-9.94532 l -86.4375,-86.4414 c -31,21.16797 -67.08203,31.79687 -103.1875,31.79687 -46.89063,0 -93.78125,-17.84765 -129.46875,-53.53515 -71.39063,-71.39063 -71.39063,-187.55078 0,-258.9375 71.38672,-71.39063 187.53906,-71.39063 258.9375,0 63.17968,63.18359 70.39843,161.41015 21.73828,232.65625 l 86.4414,86.4414 c 13.25782,13.26172 13.25782,34.75782 0,48.01953 z M 719.99609,20.65625 c -212.26562,0 -384.33984,172.07422 -384.33984,384.33984 0,212.26172 172.07422,384.33985 384.33984,384.33985 212.26172,0 384.33981,-172.07813 384.33981,-384.33985 0,-212.26562 -172.07809,-384.33984 -384.33981,-384.33984"
         fill-opacity="1"
         fill-rule="nonzero"
         id="path6" />
    </g>
    <path
       fill="#00bf63"
       d="m 690.61719,249.01172 c -32.44141,0 -64.875,12.34765 -89.5625,37.04297 -49.38282,49.3789 -49.38282,129.73828 0,179.125 49.38672,49.38672 129.74218,49.38281 179.125,0 49.38281,-49.38672 49.38281,-129.7461 0,-179.125 -24.69532,-24.69532 -57.12891,-37.04297 -89.5625,-37.04297"
       fill-opacity="1"
       fill-rule="nonzero"
       id="path7" />
  </g>
</svg>
