<?xml version="1.0" encoding="UTF-8" standalone="no"?>
<svg
   width="1000"
   zoomAndPan="magnify"
   viewBox="0 0 750 749.99999"
   height="1000"
   preserveAspectRatio="xMidYMid"
   version="1.0"
   id="svg8"
   sodipodi:docname="icone_grafico.svg"
   inkscape:version="1.4.2 (f4327f4, 2025-05-13)"
   xmlns:inkscape="http://www.inkscape.org/namespaces/inkscape"
   xmlns:sodipodi="http://sodipodi.sourceforge.net/DTD/sodipodi-0.dtd"
   xmlns="http://www.w3.org/2000/svg"
   xmlns:svg="http://www.w3.org/2000/svg">
  <sodipodi:namedview
     id="namedview8"
     pagecolor="#ffffff"
     bordercolor="#666666"
     borderopacity="1.0"
     inkscape:showpageshadow="2"
     inkscape:pageopacity="0.0"
     inkscape:pagecheckerboard="0"
     inkscape:deskcolor="#d1d1d1"
     inkscape:zoom="0.41051477"
     inkscape:cx="292.31591"
     inkscape:cy="551.74629"
     inkscape:window-width="1600"
     inkscape:window-height="829"
     inkscape:window-x="-8"
     inkscape:window-y="-8"
     inkscape:window-maximized="1"
     inkscape:current-layer="svg8" />
  <defs
     id="defs3">
    <clipPath
       id="4bf883e746">
      <path
         d="m 450.57031,287.10937 h 91.46485 v 105.89454 h -91.46485 z m 0,0"
         clip-rule="nonzero"
         id="path1" />
    </clipPath>
    <clipPath
       id="62174a072c">
      <path
         d="M 0.570312,0.109375 H 92.035156 V 106 H 0.570312 Z m 0,0"
         clip-rule="nonzero"
         id="path2" />
    </clipPath>
    <clipPath
       id="03cf3d8d08">
      <rect
         x="0"
         width="93"
         y="0"
         height="107"
         id="rect2" />
    </clipPath>
    <clipPath
       id="94d4c7316c">
      <path
         d="m 405.5625,78.5625 h 629.25 v 629.25 h -629.25 z m 0,0"
         clip-rule="nonzero"
         id="path3" />
    </clipPath>
  </defs>
  <g
     clip-path="url(#94d4c7316c)"
     id="g8"
     transform="matrix(1.1830554,0,0,1.1830554,-476.79758,-89.940775)">
    <path
       fill="#00bf63"
       d="m 1034.4336,393 c 0,173.66016 -140.77735,314.4375 -314.43751,314.4375 C 546.33984,707.4375 405.5625,566.66016 405.5625,393 c 0,-173.65625 140.77734,-314.4375 314.43359,-314.4375 173.66016,0 314.43751,140.78125 314.43751,314.4375 z M 552.29687,543.92969 V 510.39062 H 564.875 V 393 c 0,-9.26172 7.50781,-16.76953 16.76953,-16.76953 h 58.69531 c 9.26172,0 16.76953,7.50781 16.76953,16.76953 v 117.39062 h 16.76954 V 325.92187 c 0,-9.26171 7.50781,-16.76953 16.77343,-16.76953 h 58.69141 c 9.26172,0 16.77344,7.50782 16.77344,16.76953 v 184.46875 h 16.76953 V 258.83984 c 0,-9.26172 7.50781,-16.76953 16.76953,-16.76953 h 58.69531 c 9.26172,0 16.76953,7.50781 16.76953,16.76953 v 251.55078 h 12.57813 v 33.53907 h -29.29297 c -0.0195,0 -0.0352,0 -0.0547,0 h -58.69531 c -0.0195,0 -0.0391,0 -0.0586,0 z m 0,0"
       fill-opacity="1"
       fill-rule="evenodd"
       id="path7" />
  </g>
</svg>
